<svg id="1a7f9f4b-c94d-42a4-b2d1-4c86acdacc52" data-name="Layer 1" xmlns="http://www.w3.org/2000/svg" xmlns:xlink="http://www.w3.org/1999/xlink" width="202" height="80" viewBox="0 0 202 80"><defs><clipPath id="e193b255-58f5-44aa-a2b8-5f3120a5ec07"><path d="M195.87179,66.60693l5.6835-.01685L201.5682,70.604l-10.4241.033L191.08691,52.3999l4.74069-.01392Zm-15.6976-8.53784H180.1257l-1.94049,5.81079,3.9425-.012ZM176.8897,67.512l-1.24692,3.17212L170.612,70.7l6.95731-18.25806,5.17542-.01489,6.926,18.21411L184.615,70.656l-1.19513-3.165Zm-16.2757-.408,0.604-.002c1.40329-.00415,3.7731.06006,3.76669-1.947-0.0065-2.20215-2.3515-1.97607-3.89941-1.97095l-0.48428.001Zm-0.0238-7.449,0.5318-.002c1.25769-.00513,2.564-0.22607,2.55859-1.77417-0.0054-1.668-1.481-1.761-2.76251-1.75684l-0.33868.001Zm-4.70612,11.092L155.828,52.51l6.77179-.021c3.2413-.01,5.42133,1.241,5.432,4.72388a3.78727,3.78727,0,0,1-1.99548,3.7312V60.991c2.61359,0.332,3.73108,2.093,3.73968,4.63306,0.0108,3.821-3.24991,5.08887-6.58728,5.1001Zm-17.46558-9.37915a5.15939,5.15939,0,1,0,10.30328-.033A5.16363,5.16363,0,0,0,138.41851,61.36792Zm15.23709-.0708a10.086,10.086,0,0,1-20.17191.06177c-0.01721-5.51392,4.80859-9.39795,10.0574-9.41479C148.78869,51.927,153.6383,55.783,153.6556,61.29712Zm-26.46579,5.52295,5.68338-.01709,0.01291,4.01514-10.424.032L122.406,52.615l4.73959-.01587Zm-6.93362-6.145c-0.03989,2.65991-.2265,4.93384-1.84018,7.21289a8.81308,8.81308,0,0,1-7.51062,3.603c-5.732.01709-9.73489-3.864-9.75208-9.59595-0.01941-5.925,3.9834-9.832,9.861-9.8501a8.47607,8.47607,0,0,1,8.2388,5.07715l-4.49261,1.90088a4.12061,4.12061,0,0,0-3.95108-2.88989c-3.12061.01-4.731,2.99-4.72241,5.772,0.0087,2.82886,1.71082,5.7019,4.8302,5.69189,2.056-.00586,3.6254-1.075,3.812-3.17993l-3.87021.012-0.0108-3.72607Zm-35.74969-1.75c0.91571-.729,2.1713-1.48315,2.167-2.813a2.08334,2.08334,0,0,0-4.15929-.03613,3.7335,3.7335,0,0,0,1.0948,2.271l0.6073,0.772Zm-0.9827,3.19507c-1.2545.87378-3.3071,2.11377-3.3007,3.856a3.54249,3.54249,0,0,0,3.39671,3.35083c1.6924-.00488,3.04291-1.292,4.17551-2.43091l-4.05362-4.92187Zm5.63159,6.36694a7.39419,7.39419,0,0,1-5.45689,2.87085A5.39193,5.39193,0,0,1,78.0949,66.0061c-0.00751-2.321,1.44-3.584,3.1767-4.84717l1.1347-.82593A6.07341,6.07341,0,0,1,80.386,56.34912,3.87949,3.87949,0,0,1,84.582,52.345c2.22522-.00708,4.2132,1.39014,4.2207,3.78394,0.0065,2.05615-1.77979,3.44116-3.29959,4.55811l3.812,4.583,2.12061-2.47412L92.8908,64.291l-2.21661,2.6189,3.278,4.03-2.80661.00806ZM180.0664,26.366l5.0448-.01685L189.14431,36.873,193.3467,26.325l5.09769-.01685L201.4862,46.01l-5.1236.01587-1.47452-11.34082H194.8363L190.13989,46.0459l-2.0387.0061L183.5429,34.72l-0.05289.001L181.8785,46.071l-5.09662.01685ZM159.0801,35.947a5.5764,5.5764,0,1,0,11.136-.03394A5.58089,5.58089,0,0,0,159.0801,35.947Zm16.4689-.0769a10.90148,10.90148,0,0,1-21.8028.06787c-0.0184-5.96094,5.1969-10.15991,10.87057-10.178C170.28951,25.74194,175.5306,29.90894,175.549,35.87012Zm-23.97949-2.802a5.55966,5.55966,0,0,0-4.50342-2.155,5.1941,5.1941,0,0,0-5.23788,5.48,5.11194,5.11194,0,0,0,5.3501,5.342,5.89739,5.89739,0,0,0,4.41168-2.104l0.01941,6.14282a14.48029,14.48029,0,0,1-4.52069.928,10.97013,10.97013,0,0,1-7.4071-2.877,9.64118,9.64118,0,0,1-3.18631-7.44189,10.31663,10.31663,0,0,1,2.87891-7.22412,10.68493,10.68493,0,0,1,7.49341-3.21289,12.018,12.018,0,0,1,4.6825.979Zm-37.14023-6.499,5.12363-.01514,9.422,12.022h0.05289l-0.03769-12.051,5.1235-.01587L134.1751,46.22l-5.1236.01611-9.422-12.0481h-0.05283l0.03772,12.07813-5.1236.01587ZM105.1896,30.939l0.0108,3.29395,5.77719-.01782,0.013,4.33887-5.77618.019,0.0097,3.397,6.09119-.01807,0.01291,4.34009-11.21472.03394L100.052,26.615l11.21469-.03491,0.014,4.33984ZM88.45861,38.624l4.74609-11.988,5.568-.01709L90.4175,46.356l-3.97491.01294L78.0949,26.68311l5.568-.01807ZM36.75781,18.58789l11.4207,13.969A24.035,24.035,0,0,1,37.73609,71.709l7.20651,6.9541H60.50649V18.58789H36.75781ZM12.7599,65.04A24.03281,24.03281,0,0,1,24.35011,25.55591l-7.57971-6.968H0.432v60.0752H24.03179Z" style="fill:none;clip-rule:evenodd"/></clipPath><clipPath id="062893b3-286e-4868-9775-00de2c8e7f54"><path d="M31.76789,12.58008H12.68769L22.2283,1Zm11.6452,36.178A12.94391,12.94391,0,1,1,30.42829,35.854,12.94242,12.94242,0,0,1,43.41309,48.75806Z" style="fill:none;clip-rule:evenodd"/></clipPath></defs><title>logo</title><g style="clip-path:url(#e193b255-58f5-44aa-a2b8-5f3120a5ec07)"><rect x="-4.568" y="13.58789" width="211.1362" height="70.0752" style="fill:#222d54"/></g><g style="clip-path:url(#062893b3-286e-4868-9775-00de2c8e7f54)"><rect x="7.68769" y="-4" width="40.7254" height="70.74194" style="fill:#dd443e"/></g></svg>